<?xml version="1.0" encoding="UTF-8" standalone="no"?>
<svg
   xmlns:dc="http://purl.org/dc/elements/1.1/"
   xmlns:cc="http://creativecommons.org/ns#"
   xmlns:rdf="http://www.w3.org/1999/02/22-rdf-syntax-ns#"
   xmlns:svg="http://www.w3.org/2000/svg"
   xmlns="http://www.w3.org/2000/svg"
   width="82.615189mm"
   height="182.30621mm"
   viewBox="0 0 82.615189 182.30621"
   version="1.1"
   id="svg2826">
  <defs
     id="defs2820" />
  <metadata
     id="metadata2823">
    <rdf:RDF>
      <cc:Work
         rdf:about="">
        <dc:format>image/svg+xml</dc:format>
        <dc:type
           rdf:resource="http://purl.org/dc/dcmitype/StillImage" />
        <dc:title></dc:title>
      </cc:Work>
    </rdf:RDF>
  </metadata>
  <g
     transform="matrix(0.33376267,0,0,-0.33376267,41.906564,117.83228)"
     id="g101704"
     style="display:inline;fill:#000000;fill-opacity:1">
    <path
       id="path101706"
       style="fill:#000000;fill-opacity:1;fill-rule:nonzero;stroke:none"
       d="m 0,0 c -1.397,-0.2 -2.195,-2.36 -3.338,-5.819 -1.153,-3.456 -0.663,-7.702 0.832,-8.143 1.508,-0.459 7.287,3.145 7.459,3.757 0.195,0.596 -0.68,1.49 -0.199,3.759 0.478,2.267 0.864,3.459 0.412,4.351 C 4.712,-1.213 1.392,0.193 0,0" />
  </g>
  <g
     transform="matrix(0.33376267,0,0,-0.33376267,45.747908,113.82779)"
     id="g101708"
     style="display:inline;fill:#000000;fill-opacity:1">
    <path
       id="path101710"
       style="fill:#000000;fill-opacity:1;fill-rule:nonzero;stroke:none"
       d="m 0,0 c -0.061,-0.009 -4.713,9.833 -6.932,9.314 -2.279,-0.531 -3.451,-9.195 -3.026,-13.301 0.421,-4.105 0.452,-7.172 2.64,-7.699 2.206,-0.535 6.443,2.215 6.431,2.222 -0.003,0 -0.348,2.978 -0.114,4.907 C -0.768,-2.627 0.001,-0.001 0,0" />
  </g>
  <g
     transform="matrix(0.33376267,0,0,-0.33376267,40.346138,111.15639)"
     id="g101712"
     style="display:inline;fill:#000000;fill-opacity:1">
    <path
       id="path101714"
       style="fill:#000000;fill-opacity:1;fill-rule:nonzero;stroke:none"
       d="m 0,0 c -1.332,-0.524 -1.788,-7.14 -0.959,-9.703 0.822,-2.561 0.804,-5.408 2.365,-6 1.562,-0.591 3.262,-0.31 3.261,-0.31 -0.002,-10e-4 -0.599,2.936 -0.513,4.892 0.082,1.955 0.918,4.992 0.916,4.992 C 5.037,-6.136 1.298,0.515 0,0" />
  </g>
  <g
     transform="matrix(0.33376267,0,0,-0.33376267,44.567552,118.34243)"
     id="g101716"
     style="display:inline;fill:#000000;fill-opacity:1">
    <path
       id="path101718"
       style="fill:#000000;fill-opacity:1;fill-rule:nonzero;stroke:none"
       d="m 0,0 c -2.256,-0.75 -1.195,-4.821 -1.586,-8.914 -0.413,-4.09 0.015,-10.26 2.294,-10.523 2.295,-0.275 7.035,5.248 7.874,7.034 0.869,1.778 1.283,7.83 0.601,9.024 C 8.472,-2.2 2.233,0.729 0,0" />
  </g>
  <g
     transform="matrix(0.33376267,0,0,-0.33376267,35.608241,118.30003)"
     id="g101720"
     style="display:inline;fill:#000000;fill-opacity:1">
    <path
       id="path101722"
       style="fill:#000000;fill-opacity:1;fill-rule:nonzero;stroke:none"
       d="m 0,0 c -1.318,-3.288 0.835,-5.18 2.469,-4.777 1.623,0.4 1.41,2.803 3.444,5.696 C 6.808,2.185 9.664,3.905 9.608,4.548 9.551,5.183 7.428,6.843 5.861,6.954 4.299,7.06 1.317,3.287 0,0" />
  </g>
  <g
     transform="matrix(0.33376267,0,0,-0.33376267,74.59822,111.09023)"
     id="g101724"
     style="display:inline;fill:#000000;fill-opacity:1">
    <path
       id="path101726"
       style="fill:#000000;fill-opacity:1;fill-rule:nonzero;stroke:none"
       d="m 0,0 c -0.684,0.081 -1.703,-5.731 -2.498,-8.404 0.012,0 -1.172,-5.704 -0.898,-5.982 0.285,-0.279 2.048,-0.177 3.267,0.277 1.223,0.454 1.307,1.245 1.275,3.769 C 1.129,-7.813 0.701,-0.076 0,0" />
  </g>
  <g
     transform="matrix(0.33376267,0,0,-0.33376267,38.662636,111.09023)"
     id="g101728"
     style="display:inline;fill:#000000;fill-opacity:1">
    <path
       id="path101730"
       style="fill:#000000;fill-opacity:1;fill-rule:nonzero;stroke:none"
       d="m 0,0 c -0.701,-0.076 -1.127,-7.813 -1.146,-10.34 -0.031,-2.524 0.053,-3.315 1.275,-3.769 1.22,-0.454 2.982,-0.556 3.267,-0.277 0.275,0.278 -0.91,5.982 -0.897,5.982 C 1.705,-5.731 0.685,0.081 0,0" />
  </g>
  <g
     transform="matrix(0.33376267,0,0,-0.33376267,37.630704,118.92943)"
     id="g101732"
     style="display:inline;fill:#000000;fill-opacity:1">
    <path
       id="path101734"
       style="fill:#000000;fill-opacity:1;fill-rule:nonzero;stroke:none"
       d="m 0,0 c -1.357,-3.921 -2.168,-7.952 -0.907,-8.302 1.259,-0.348 3.058,1.559 4.961,2.264 1.467,0.54 3.012,0.309 3.582,0.892 0.566,0.584 0.34,3.434 1.111,4.919 0.771,1.486 2.316,3.265 2.045,3.725 C 10.518,3.941 4.921,5.221 4.925,5.237 3.156,4.933 1.357,3.922 0,0" />
  </g>
  <path
     d="m 56.162395,115.40735 c -0.298382,-2.59569 -1.394125,-3.73347 -2.604683,-3.72744 -1.212555,0.006 -2.155441,0.8394 -2.696801,2.24955 -0.540363,1.41015 -0.520338,4.37395 0.07743,5.0595 0.592098,0.70458 4.022845,0.53768 4.888623,0.23597 0.872788,-0.28303 0.626809,-1.22289 0.335432,-3.81758"
     style="display:inline;fill:#000000;fill-opacity:1;fill-rule:nonzero;stroke:none;stroke-width:0.04980412"
     id="path101738" />
  <g
     transform="matrix(0.33376267,0,0,-0.33376267,37.618164,114.70232)"
     id="g101740"
     style="display:inline;fill:#000000;fill-opacity:1">
    <path
       id="path101742"
       style="fill:#000000;fill-opacity:1;fill-rule:nonzero;stroke:none"
       d="m 0,0 c 0.86,0.156 1.24,4.377 1.147,6.709 -0.1,2.337 -1.524,4.737 -1.522,4.737 C -1.463,11.128 -2.575,7.173 -2.346,4.471 -2.118,1.766 -0.86,-0.155 0,0" />
  </g>
  <path
     id="path101746"
     d="m 26.850121,101.24251 c 0,0 -2.097012,8.90871 -1.048993,11.70397 1.048342,2.79525 3.66887,5.59165 4.192878,8.03714 0.524011,2.44548 7.162615,18.16769 15.023728,20.26405 3.986128,1.06272 7.997489,2.13844 11.612144,2.13844 3.614652,0 7.628237,-1.07572 11.613691,-2.13844 4.064305,-1.08374 7.802153,-5.80871 10.536698,-10.45887 l 0.22721,-5.7851 0.336178,-10.30476 0.235026,-9.66509 0.04666,-3.1906 c -0.28239,0.003 -0.480212,0.0274 -0.55093,0.0981 -0.523989,0.52404 0.524334,2.96907 0,5.24034 -0.379162,1.64712 -1.039117,3.2927 -2.437317,4.53995 0.139901,0.53439 0.19369,1.12771 0.160319,1.52057 -0.0758,0.90244 -0.516667,1.83652 -1.122133,1.83652 -0.03337,0 -0.06634,-0.004 -0.09807,-0.0109 -0.08412,-0.015 -0.15683,-0.0557 -0.222573,-0.11514 -0.006,0.3041 -0.03785,0.56368 -0.149411,0.77196 0.163905,-0.0651 0.325168,-0.10827 0.465367,-0.11828 0.01698,-0.001 0.03257,-0.001 0.04826,-0.001 0.808718,0 1.860881,1.51245 2.280085,2.55715 0.325766,0.81304 0.09283,1.35033 -0.07471,1.59836 -0.222975,0.32875 -0.576835,0.52608 -0.946281,0.52608 -0.08148,0 -0.16037,-0.0106 -0.238111,-0.0296 -0.160222,-0.0397 -0.284384,-0.11375 -0.387529,-0.20858 0.16625,0.69358 0.237267,1.3486 0.05135,1.70271 -0.103497,0.19862 -0.258931,0.2787 -0.370394,0.30973 -0.06649,0.0184 -0.135918,0.0264 -0.207038,0.0264 -0.341108,0 -0.669316,-0.20773 -1.014757,-0.42801 -0.220286,-0.13955 -0.448588,-0.28443 -0.664588,-0.36417 -0.181587,-0.0671 -0.377466,-0.0918 -0.568064,-0.1152 -0.188208,-0.024 -0.3691,-0.0487 -0.527626,-0.11514 0.0067,0.51766 -0.07416,0.99812 -0.244337,1.3229 -0.159227,0.30534 -0.366014,0.41955 -0.510494,0.46223 -0.06211,0.0187 -0.133277,0.0296 -0.210075,0.0296 -0.533403,0 -1.877217,-0.69387 -2.465304,-1.20152 0.04702,0.96724 0.04826,3.38723 -1.120616,3.52209 -0.03138,0.004 -0.06523,0.006 -0.09961,0.006 -1.063369,0 -2.65922,-2.03355 -2.908877,-2.56491 -0.02203,-0.0451 -0.04345,-0.0983 -0.06381,-0.15564 -0.111475,0.94055 -0.303214,1.81098 -0.533841,2.18984 -0.37882,0.63645 -0.870644,0.77037 -1.217085,0.77042 h -0.0016 c -0.456926,0 -0.946115,-0.22945 -1.45677,-0.68172 -0.498644,-0.43923 -0.91256,-1.67277 -1.112809,-2.8233 -0.212277,1.06835 -0.635965,2.21509 -0.977403,2.62563 l -0.0467,0.056 c -0.363128,0.44689 -0.649389,0.8 -1.170399,0.8 -0.250988,0 -0.528532,-0.0832 -0.926044,-0.27547 -0.956564,-0.46058 -1.241285,-2.84531 -1.288682,-3.31825 -0.0093,-0.0944 -0.01699,-0.18218 -0.02334,-0.26764 -0.01435,0 -0.02923,0 -0.04358,0 -0.01435,0 -0.02834,0 -0.04202,0 -0.0067,0.0871 -0.01366,0.17655 -0.02335,0.27232 -0.04739,0.47295 -0.332777,2.85518 -1.288681,3.31512 -0.397507,0.19189 -0.674382,0.27392 -0.926044,0.27392 -0.520333,0 -0.806924,-0.35276 -1.170393,-0.8 l -0.04825,-0.0607 c -0.340436,-0.4082 -0.764137,-1.55419 -0.977404,-2.62254 -0.199259,1.15147 -0.613506,2.38686 -1.112814,2.82638 -0.50899,0.45193 -0.999517,0.68013 -1.45677,0.68018 -0.34645,0 -0.838487,-0.13497 -1.218649,-0.7751 -0.230623,-0.37747 -0.421138,-1.24615 -0.532276,-2.1867 -0.02137,0.0601 -0.0439,0.11544 -0.06693,0.16186 -0.246646,0.52633 -1.84272,2.56023 -2.90576,2.56023 -0.03471,0 -0.06845,-0.002 -0.101162,-0.006 -1.164495,-0.13417 -1.166103,-2.54324 -1.119038,-3.51587 -0.585084,0.50068 -1.930945,1.1953 -2.465304,1.1953 -0.07676,0 -0.148804,-0.01 -0.213221,-0.0296 -0.141853,-0.0416 -0.347843,-0.15719 -0.50738,-0.46223 -0.169554,-0.32507 -0.251586,-0.80454 -0.245907,-1.3229 -0.157542,0.0668 -0.337818,0.0899 -0.526058,0.1136 -0.190246,0.0237 -0.386399,0.0496 -0.569633,0.11674 -0.215613,0.0797 -0.442735,0.22497 -0.663019,0.36417 -0.345779,0.22063 -0.673315,0.42801 -1.014757,0.42801 -0.07109,0 -0.140912,-0.008 -0.207001,-0.0264 -0.11181,-0.031 -0.265949,-0.11111 -0.370413,-0.30973 -0.185576,-0.35411 -0.114188,-1.00918 0.05136,-1.70271 -0.102461,0.0948 -0.227003,0.16924 -0.387535,0.20858 -0.07744,0.0194 -0.157022,0.0296 -0.238129,0.0296 -0.370478,0 -0.725217,-0.19733 -0.947837,-0.52608 -0.167546,-0.24768 -0.399568,-0.78506 -0.07315,-1.59836 0.418539,-1.04475 1.47106,-2.55715 2.280097,-2.55715 0.01569,0 0.03167,5.3e-4 0.04669,0.001 0.141189,0.01 0.302371,0.0544 0.466913,0.11983 -0.111477,-0.20824 -0.142739,-0.46946 -0.149413,-0.77351 -0.06508,0.0594 -0.138788,0.10015 -0.222559,0.11514 -0.03238,0.007 -0.0659,0.0109 -0.09961,0.0109 -0.605109,0 -1.044491,-0.93408 -1.120593,-1.83652 -0.03304,-0.39286 0.02045,-0.98618 0.160305,-1.52057 -1.397469,-1.24725 -2.057463,-2.89283 -2.437284,-4.53995 -0.524008,-2.27127 0.524004,-4.7163 0,-5.24034 -0.252327,-0.25196 -2.094264,0.0659 -3.799123,-0.0436 -1.838031,-0.11848 -3.537651,-0.65522 -3.537651,-0.65522 z"
     style="display:inline;fill:#000006;fill-opacity:1;fill-rule:nonzero;stroke:none;stroke-width:0.04980412" />
  <g
     transform="matrix(0.33376267,0,0,-0.33376267,52.684564,119.97667)"
     id="g101748"
     style="display:inline;fill:#000000;fill-opacity:1">
    <path
       id="path101750"
       style="fill:#000000;fill-opacity:1;fill-rule:nonzero;stroke:none"
       d="m 0,0 c -2.326,-0.826 0.446,-10.926 2.203,-13.032 1.713,-2.105 2.193,-2.845 5.075,-1.454 2.91,1.4 4.183,13.325 2.824,14.356 C 10.092,-0.158 2.299,0.795 0,0" />
  </g>
  <g
     transform="matrix(0.33376267,0,0,-0.33376267,50.260909,114.4676)"
     id="g101752"
     style="display:inline;fill:#000000;fill-opacity:1">
    <path
       id="path101754"
       style="fill:#000000;fill-opacity:1;fill-rule:nonzero;stroke:none"
       d="m 0,0 c -0.052,-0.01 -4.938,8.694 -7.715,7.908 -2.8,-0.805 -6.199,-11.381 -5.674,-13.725 0.542,-2.344 2.408,-4.728 4.492,-5.255 2.078,-0.548 7.636,-0.437 7.634,-0.423 -0.003,0 -0.509,2.743 -0.163,5.858 C -1.161,-3.256 0.004,-0.001 0,0" />
  </g>
  <g
     transform="matrix(0.33376267,0,0,-0.33376267,48.406469,119.29708)"
     id="g101756"
     style="display:inline;fill:#000000;fill-opacity:1">
    <path
       id="path101758"
       style="fill:#000000;fill-opacity:1;fill-rule:nonzero;stroke:none"
       d="m 0,0 c -1.791,-0.876 -0.679,-13.044 0.838,-15.531 1.477,-2.486 3.809,-2.238 6.319,-0.013 2.528,2.227 4.008,12.245 3.052,13.625 C 9.239,-0.564 1.771,0.847 0,0" />
  </g>
  <path
     d="m 72.915039,111.15641 c -0.433548,-0.17187 -1.681141,2.04795 -1.691497,2.04566 -5.29e-4,0 0.277655,1.01362 0.305698,1.6658 0.02804,0.65318 -0.171527,1.63308 -0.171527,1.63308 -5.29e-4,0 0.566371,0.0938 1.088068,-0.10345 0.520655,-0.19762 0.514978,-1.14783 0.78865,-2.00257 0.276361,-0.85544 0.125857,-3.0636 -0.319392,-3.23852"
     style="display:inline;fill:#000000;fill-opacity:1;fill-rule:nonzero;stroke:none;stroke-width:0.04980412"
     id="path101762" />
  <path
     d="m 59.702753,111.67986 c -1.209895,-0.006 -2.306302,1.1318 -2.604351,3.72744 -0.291377,2.59469 -0.538024,3.53454 0.335766,3.81758 0.865779,0.30172 4.296525,0.46861 4.888618,-0.23597 0.597772,-0.68555 0.617798,-3.64935 0.07744,-5.0595 -0.541037,-1.41015 -1.484911,-2.24352 -2.697471,-2.24955"
     style="display:inline;fill:#000000;fill-opacity:1;fill-rule:nonzero;stroke:none;stroke-width:0.04980412"
     id="path101766" />
  <g
     transform="matrix(0.33376267,0,0,-0.33376267,62.465377,124.48509)"
     id="g101768"
     style="display:inline;fill:#000000;fill-opacity:1">
    <path
       id="path101770"
       style="fill:#000000;fill-opacity:1;fill-rule:nonzero;stroke:none"
       d="M 0,0 C 2.512,-2.224 4.842,-2.473 6.32,0.013 7.838,2.5 8.949,14.668 7.158,15.544 5.387,16.391 -2.08,14.979 -3.051,13.625 -4.008,12.245 -2.525,2.227 0,0" />
  </g>
  <g
     transform="matrix(0.33376267,0,0,-0.33376267,57.205409,120.02)"
     id="g101772"
     style="display:inline;fill:#000000;fill-opacity:1">
    <path
       id="path101774"
       style="fill:#000000;fill-opacity:1;fill-rule:nonzero;stroke:none"
       d="m 0,0 c -1.361,-1.03 -0.088,-12.955 2.822,-14.356 2.881,-1.391 3.364,-0.651 5.076,1.454 C 9.652,-10.796 12.426,-0.697 10.1,0.13 7.801,0.925 0.008,-0.028 0,0" />
  </g>
  <path
     d="m 65.57554,111.82817 c -0.926193,-0.26266 -2.557963,2.64241 -2.575644,2.63942 -0.0014,0 0.387159,1.08673 0.476607,1.8814 0.115481,1.04001 -0.05406,1.95516 -0.05473,1.95516 -7.06e-4,0.004 1.854717,0.0417 2.548942,-0.14114 0.694226,-0.17591 1.31736,-0.97158 1.498596,-1.75395 0.174557,-0.78232 -0.958899,-4.31189 -1.893768,-4.58089"
     style="display:inline;fill:#000000;fill-opacity:1;fill-rule:nonzero;stroke:none;stroke-width:0.04980412"
     id="path101778" />
  <path
     id="path101782"
     d="M 56.629878,4.9314355e-5 C 35.911886,4.9314355e-5 22.001426,12.926809 15.574161,18.964562 9.122526,25.025274 6.580886,38.124107 6.972054,46.921753 c 0.3908363,8.797996 2.933258,14.075891 3.324424,16.030704 0.391172,1.954509 0.390475,8.2113 0.781307,9.775647 0.314399,1.257858 2.019901,2.135356 2.675413,2.431042 0.02503,-0.01599 0.04978,-0.03177 0.07315,-0.04981 0.06542,-0.05239 0.13213,-0.104686 0.199217,-0.158773 l 0.0093,-0.0078 0.02334,-0.0249 0.04669,-0.05289 c 0.03872,-0.03805 0.04879,-0.06818 0.06381,-0.09652 0.03305,-0.04776 0.06534,-0.134372 0.09805,-0.210078 0.0257,-0.08387 0.05568,-0.167239 0.07471,-0.258381 0.04105,-0.179893 0.07258,-0.368451 0.09027,-0.568066 0.03972,-0.396494 0.05593,-0.818033 0.05759,-1.252874 0.004,-0.871126 -0.0418,-1.800718 -0.0498,-2.767265 -0.0097,-0.966251 -0.01264,-1.972893 0.08716,-3.002241 0.105127,-1.025319 0.281349,-2.088887 0.748616,-3.097221 0.458257,-0.931488 0.934723,-1.838369 1.369613,-2.739228 0.214944,-0.450226 0.42088,-0.894778 0.582086,-1.335344 0.158207,-0.441565 0.254354,-0.877154 0.26303,-1.312041 -6.53e-4,-0.109123 -0.0032,-0.217746 -0.0109,-0.326816 L 17.46357,57.73544 17.45737,57.6685 17.44181,57.58135 c -0.0247,-0.123369 -0.043,-0.182582 -0.07938,-0.298825 -0.0297,-0.103796 -0.06634,-0.208332 -0.102716,-0.312822 -0.152859,-0.419499 -0.3356,-0.831332 -0.515163,-1.229515 -0.364806,-0.795668 -0.725358,-1.548607 -1.052113,-2.245863 -0.659849,-1.392777 -1.178295,-2.575921 -1.458324,-3.438031 -0.14352,-0.429911 -0.220323,-0.782174 -0.244354,-1.024123 -0.01001,-0.121174 -0.015,-0.213361 -0.0047,-0.275465 0.007,-0.06206 0.01089,-0.09493 0.01089,-0.09493 v 0.09493 c -0.0027,0.06141 0.01332,0.153096 0.03735,0.269241 0.0494,0.23398 0.173731,0.562687 0.353295,0.97118 0.360467,0.817085 0.980175,1.937229 1.724468,3.283985 0.372813,0.673851 0.78155,1.401436 1.184406,2.194467 0.201926,0.397138 0.406187,0.805332 0.591424,1.248241 0.04539,0.112158 0.09157,0.22447 0.132295,0.343948 0.03906,0.105485 0.08624,0.272281 0.108941,0.379755 0.05407,0.265011 0.07448,0.51119 0.08249,0.778191 0.0057,0.529017 -0.100824,1.063615 -0.263031,1.557922 -0.162876,0.495951 -0.369363,0.966847 -0.588307,1.428779 -0.435223,0.922874 -0.905369,1.839369 -1.34627,2.753222 -0.408862,0.856086 -0.595119,1.845942 -0.701924,2.823295 -0.09879,0.982938 -0.141175,1.96652 -0.15253,2.924402 -0.01201,0.957883 -0.01664,1.890015 -0.0607,2.782804 -0.02437,0.446243 -0.05531,0.882775 -0.12607,1.3089 -0.03304,0.212366 -0.08111,0.423434 -0.143186,0.63037 -0.06842,0.210574 -0.133734,0.401724 -0.283256,0.611647 -0.03705,0.05274 -0.07502,0.106383 -0.107393,0.133875 l -0.05136,0.04981 -0.0249,0.0249 -0.0062,0.0062 c -0.01736,0.01638 -0.01994,0.01883 -0.02023,0.01872 0,0 -6.89e-4,-5.3e-4 -0.0031,0.0014 l -0.01556,0.01246 c -0.08411,0.05872 -0.166918,0.116593 -0.24902,0.174313 -0.08344,0.05479 -0.173359,0.09488 -0.2568,0.141597 -0.08345,0.04781 -0.169469,0.08282 -0.255247,0.115197 -0.01202,0.0053 -0.02378,0.009 -0.0358,0.01399 -0.725935,0.678234 -2.119838,1.910886 -3.223263,2.462218 -1.5643424,0.781674 -2.5419315,5.473572 -1.1735044,6.451177 1.3687674,0.977256 1.5638994,8.2121 6.4511874,12.513284 4.887622,4.300884 12.512727,2.931764 14.85875,2.736087 2.346018,-0.195479 4.497411,0.586047 5.475336,1.954807 0.977266,1.36912 -1.565564,6.84309 0.585198,9.38499 0.06041,0.0711 0.130352,0.14612 0.205442,0.22258 0.155539,-0.46926 0.345371,-0.91401 0.689479,-0.94006 0.34411,-0.026 0.67129,0.65493 0.7564,0.88557 0.09812,-0.50233 0.233496,-0.66434 0.477805,-0.69103 l 0.04514,-0.003 c 0.411531,0 0.542262,0.41174 0.870012,1.79913 0.06509,-0.8016 0.266613,-1.54647 0.670803,-1.70579 0.0594,-0.0237 0.122568,-0.0358 0.188319,-0.0358 0.357459,0 0.802244,0.33827 1.775831,1.933 0.175558,-1.12647 0.531789,-2.20155 1.176622,-2.35165 0.04606,-0.0108 0.09446,-0.0156 0.143187,-0.0156 0.456589,0 1.074712,0.3815 2.494871,3.14543 0.02736,0.054 0.0479,0.0913 0.06226,0.11829 0.401855,-1.031 0.952287,-1.96622 1.533034,-2.13381 0.07409,-0.021 0.1498,-0.0311 0.227234,-0.0311 0.435891,0 1.180081,0.27492 2.620939,2.59759 0.0257,-0.0831 0.05223,-0.16426 0.08093,-0.23971 0.614126,-1.59871 1.69554,-2.48159 3.044276,-2.48866 1.576362,0 2.684421,1.51653 2.9758,4.05749 0.03404,0.30206 0.06734,0.57688 0.09805,0.83422 0.03037,-0.25734 0.064,-0.53315 0.09805,-0.83422 0.291703,-2.54195 1.400772,-4.05739 2.966456,-4.05749 1.359744,0.007 2.440154,0.89025 3.053615,2.48866 0.0287,0.0754 0.05645,0.15658 0.08249,0.23971 1.440518,-2.32267 2.184157,-2.59759 2.619385,-2.59759 0.07777,0 0.154806,0.0105 0.227228,0.0311 0.58142,0.16754 1.132402,1.10316 1.53459,2.13381 0.01435,-0.0267 0.03333,-0.0652 0.0607,-0.11829 1.419831,-2.76487 2.037964,-3.14543 2.494868,-3.14543 0.04806,0 0.09682,0.006 0.143189,0.0171 0.643816,0.14951 1.000763,1.22453 1.176622,2.3517 0.973271,-1.59538 1.41867,-1.93459 1.775816,-1.93459 0.06604,0 0.129841,0.0118 0.189905,0.0358 0.40351,0.15857 0.605716,0.90379 0.670758,1.70579 0.327465,-1.38769 0.458448,-1.79913 0.870028,-1.79913 l 0.04826,0.003 c 0.242002,0.0263 0.375375,0.18996 0.473142,0.69258 0.08347,-0.22492 0.410982,-0.9038 0.756423,-0.88711 0.344746,0.0167 0.535098,0.4708 0.690981,0.94005 0.07511,-0.0761 0.143137,-0.15145 0.203902,-0.22257 2.149744,-2.54191 -0.390168,-8.01578 0.586788,-9.38499 0.501083,-0.70134 1.310449,-1.24849 2.295623,-1.58905 l 0.06225,-4.272245 0.03272,-8.402899 0.149413,-4.378081 c -4.307904,0.0055 -9.292351,-0.589282 -11.26197,-2.255183 -3.246848,-2.744854 -6.648323,-6.136215 -5.875329,-9.204449 0.772655,-3.068281 2.628915,-9.851402 9.431656,-11.627666 0.95664,-0.249818 1.812026,-0.355452 2.586677,-0.35331 2.619548,0.0072 4.311839,1.251875 5.841127,2.362555 L 81.949057,23.146402 82.615189,8.9662727 H 80.470473 L 80.095396,8.1445059 79.735864,7.3631776 79.382602,6.6114346 79.054192,5.9064072 78.733555,5.2340516 78.713333,5.1920179 C 72.53787,2.1918791 65.161103,-9.7603206e-8 56.629886,-9.7603206e-8 Z M 38.485609,59.774354 c 0.774618,-0.002 1.630065,0.103495 2.586707,0.353313 6.802744,1.776261 8.658992,8.559385 9.431654,11.627666 0.773336,3.068234 -2.628485,6.459595 -5.875331,9.204449 -3.24684,2.745849 -14.687757,2.584087 -17.780071,1.615497 -3.09198,-0.968892 -5.255888,-7.913526 -5.255888,-11.143672 0,-3.2295 3.555955,-7.588906 7.266729,-7.588906 3.188949,0 4.892414,-4.055246 9.6262,-4.068347 z m 16.338867,21.191652 c 0.903697,0.0014 1.688032,1.735228 1.805402,2.006159 0.120817,-0.2797 0.95268,-2.117069 1.892553,-1.999929 1.018307,0.127495 2.291632,1.781788 2.0373,3.181235 -0.254993,1.399495 0.380159,5.087393 1.016312,8.267485 0.636159,3.181087 2.290991,3.436583 2.290991,5.472228 0,2.035593 -2.927087,3.816486 -4.708044,2.925986 -1.637107,-0.81868 -2.41463,-3.680323 -2.529112,-4.136875 -0.114814,0.456552 -0.89168,3.318195 -2.529118,4.136875 -1.780957,0.8905 -4.706489,-0.890393 -4.706489,-2.925986 0,-2.035645 1.653608,-2.291141 2.289432,-5.472228 0.636155,-3.180092 1.272545,-6.86799 1.017876,-8.267485 -0.254328,-1.399447 1.017765,-3.05374 2.035743,-3.181235 0.02938,-0.0035 0.058,-0.0063 0.08715,-0.0062 z"
     style="display:inline;fill:#000000;fill-opacity:1;fill-rule:nonzero;stroke:none;stroke-width:0.04980412" />
  <g
     transform="matrix(0.33376267,0,0,-0.33376267,75.642473,114.70232)"
     id="g101784"
     style="display:inline;fill:#000000;fill-opacity:1">
    <path
       id="path101786"
       style="fill:#000000;fill-opacity:1;fill-rule:nonzero;stroke:none"
       d="M 0,0 C 0.863,-0.155 2.119,1.766 2.348,4.471 2.576,7.173 1.465,11.128 0.375,11.446 0.377,11.445 -1.045,9.046 -1.145,6.709 -1.24,4.377 -0.857,0.156 0,0" />
  </g>
  <g
     transform="matrix(0.33376267,0,0,-0.33376267,74.446287,116.78181)"
     id="g101788"
     style="display:inline;fill:#000000;fill-opacity:1">
    <path
       id="path101790"
       style="fill:#000000;fill-opacity:1;fill-rule:nonzero;stroke:none"
       d="m 0,0 c -0.057,-0.644 2.797,-2.364 3.695,-3.63 2.034,-2.892 1.823,-5.295 3.444,-5.696 1.632,-0.403 3.785,1.489 2.466,4.777 C 8.289,-1.262 5.307,2.511 3.746,2.405 2.18,2.294 0.057,0.634 0,0" />
  </g>
  <g
     transform="matrix(0.33376267,0,0,-0.33376267,72.711003,119.00502)"
     id="g101792"
     style="display:inline;fill:#000000;fill-opacity:1">
    <path
       id="path101794"
       style="fill:#000000;fill-opacity:1;fill-rule:nonzero;stroke:none"
       d="m 0,0 c 0.77,-1.485 0.545,-4.336 1.111,-4.919 0.569,-0.583 2.114,-0.352 3.582,-0.893 1.901,-0.705 3.703,-2.612 4.961,-2.263 1.26,0.349 0.45,4.381 -0.906,8.302 C 7.391,4.148 5.592,5.16 3.822,5.464 3.826,5.448 -1.773,4.168 -2.045,3.725 -2.316,3.265 -0.77,1.485 0,0" />
  </g>
  <g
     transform="matrix(0.33376267,0,0,-0.33376267,69.629606,118.53176)"
     id="g101796"
     style="display:inline;fill:#000000;fill-opacity:1">
    <path
       id="path101798"
       style="fill:#000000;fill-opacity:1;fill-rule:nonzero;stroke:none"
       d="M 0,0 C -0.449,-0.892 -0.066,-2.083 0.414,-4.351 0.895,-6.619 0.02,-7.514 0.215,-8.109 c 0.174,-0.613 5.949,-4.216 7.461,-3.757 1.494,0.44 1.984,4.686 0.83,8.142 C 7.365,-0.265 6.564,1.895 5.168,2.096 3.775,2.288 0.457,0.883 0,0" />
  </g>
  <g
     transform="matrix(0.33376267,0,0,-0.33376267,65.629604,119.47016)"
     id="g101800"
     style="display:inline;fill:#000000;fill-opacity:1">
    <path
       id="path101802"
       style="fill:#000000;fill-opacity:1;fill-rule:nonzero;stroke:none"
       d="m 0,0 c -0.686,-1.194 -0.27,-7.245 0.598,-9.024 0.839,-1.788 5.58,-7.309 7.873,-7.035 2.281,0.264 2.707,6.434 2.295,10.524 -0.391,4.093 0.672,8.164 -1.584,8.914 C 6.947,4.107 0.709,1.179 0,0" />
  </g>
  <path
     d="m 69.826433,110.71934 c -0.740637,-0.17387 -2.293283,3.11131 -2.313646,3.10832 -7.06e-4,0 0.256332,0.8768 0.334436,1.52097 0.0791,0.64417 -0.03705,1.63776 -0.03772,1.63776 -0.0047,0.002 1.410164,0.91988 2.146766,0.74163 0.729931,-0.17556 0.739293,-1.19953 0.880442,-2.5693 0.141539,-1.37075 -0.248973,-4.26283 -1.010281,-4.43938"
     style="display:inline;fill:#000000;fill-opacity:1;fill-rule:nonzero;stroke:none;stroke-width:0.04980412"
     id="path101806" />
  <path
     id="path101698-4"
     d="m 8.1175485,130.75768 c -0.6954803,-5.3e-4 -1.4116979,0.0866 -2.1478037,0.2786 -8.5666306,2.23471 -1.8629826,10.42774 -1.8629826,10.42769 0,0 -6.7047104,3.35162 -2.9804675,8.93829 3.7240187,5.58673 6.7038633,2.97993 10.8012683,2.23496 2.914427,-0.53026 18.585603,4.62367 31.949342,9.38653 -12.998287,4.65201 -27.108212,9.60906 -29.183655,9.60906 -2.606543,0 -4.469356,-5.96011 -10.8012674,-0.37353 -5.6531657,4.98883 -0.023513,8.4934 0.7159334,11.04252 l 3.739977,0.004 11.313318,-0.0139 c 9.428753,-4.22258 26.953088,-11.56815 36.109544,-15.06888 0.345531,-0.13208 0.745826,-0.28439 1.114371,-0.42489 0.383405,0.14543 0.75814,0.28812 1.115917,0.42489 4.68517,1.79125 11.562925,4.58999 18.425979,7.4613 l 0.233435,-2.12913 0.456058,-7.95934 c -2.43398,-0.86106 -4.914524,-1.74618 -7.353927,-2.61935 2.508082,-0.91983 5.09441,-1.85545 7.658924,-2.76413 l 0.586793,-11.13904 c -6.746214,3.15046 -14.605454,6.68103 -21.120075,9.22313 -14.745898,-5.75357 -36.392801,-16.577 -36.392801,-16.577 0,0 -4.980471,-9.95739 -12.3778805,-9.96237 z"
     style="display:inline;fill:#000000;fill-opacity:1;fill-rule:nonzero;stroke:none;stroke-width:0.04980412" />
</svg>
