<?xml version="1.0" encoding="UTF-8" standalone="no"?>
<svg
   xmlns:dc="http://purl.org/dc/elements/1.1/"
   xmlns:cc="http://creativecommons.org/ns#"
   xmlns:rdf="http://www.w3.org/1999/02/22-rdf-syntax-ns#"
   xmlns:svg="http://www.w3.org/2000/svg"
   xmlns="http://www.w3.org/2000/svg"
   width="82.615189mm"
   height="182.30621mm"
   viewBox="0 0 82.615189 182.30621"
   version="1.1"
   id="svg2826">
  <defs
     id="defs2820" />
  <metadata
     id="metadata2823">
    <rdf:RDF>
      <cc:Work
         rdf:about="">
        <dc:format>image/svg+xml</dc:format>
        <dc:type
           rdf:resource="http://purl.org/dc/dcmitype/StillImage" />
        <dc:title></dc:title>
      </cc:Work>
    </rdf:RDF>
  </metadata>
  <g
     transform="translate(-28.240024,-81.870706)"
     id="layer1">
    <g
       id="g2970"
       transform="matrix(0.17647128,0,0,0.17647128,57.274461,142.49008)">
      <g
         transform="matrix(1.8913144,0,0,-1.8913144,72.941769,324.20517)"
         id="g101704"
         style="display:inline;fill:#ffffff">
        <path
           id="path101706"
           style="fill:#ffffff;fill-opacity:1;fill-rule:nonzero;stroke:none"
           d="m 0,0 c -1.397,-0.2 -2.195,-2.36 -3.338,-5.819 -1.153,-3.456 -0.663,-7.702 0.832,-8.143 1.508,-0.459 7.287,3.145 7.459,3.757 0.195,0.596 -0.68,1.49 -0.199,3.759 0.478,2.267 0.864,3.459 0.412,4.351 C 4.712,-1.213 1.392,0.193 0,0" />
      </g>
      <g
         transform="matrix(1.8913144,0,0,-1.8913144,94.709299,301.51318)"
         id="g101708"
         style="display:inline;fill:#ffffff">
        <path
           id="path101710"
           style="fill:#ffffff;fill-opacity:1;fill-rule:nonzero;stroke:none"
           d="m 0,0 c -0.061,-0.009 -4.713,9.833 -6.932,9.314 -2.279,-0.531 -3.451,-9.195 -3.026,-13.301 0.421,-4.105 0.452,-7.172 2.64,-7.699 2.206,-0.535 6.443,2.215 6.431,2.222 -0.003,0 -0.348,2.978 -0.114,4.907 C -0.768,-2.627 0.001,-0.001 0,0" />
      </g>
      <g
         transform="matrix(1.8913144,0,0,-1.8913144,64.099389,286.37531)"
         id="g101712"
         style="display:inline;fill:#ffffff">
        <path
           id="path101714"
           style="fill:#ffffff;fill-opacity:1;fill-rule:nonzero;stroke:none"
           d="m 0,0 c -1.332,-0.524 -1.788,-7.14 -0.959,-9.703 0.822,-2.561 0.804,-5.408 2.365,-6 1.562,-0.591 3.262,-0.31 3.261,-0.31 -0.002,-10e-4 -0.599,2.936 -0.513,4.892 0.082,1.955 0.918,4.992 0.916,4.992 C 5.037,-6.136 1.298,0.515 0,0" />
      </g>
      <g
         transform="matrix(1.8913144,0,0,-1.8913144,88.020639,327.09601)"
         id="g101716"
         style="display:inline;fill:#ffffff">
        <path
           id="path101718"
           style="fill:#ffffff;fill-opacity:1;fill-rule:nonzero;stroke:none"
           d="m 0,0 c -2.256,-0.75 -1.195,-4.821 -1.586,-8.914 -0.413,-4.09 0.015,-10.26 2.294,-10.523 2.295,-0.275 7.035,5.248 7.874,7.034 0.869,1.778 1.283,7.83 0.601,9.024 C 8.472,-2.2 2.233,0.729 0,0" />
      </g>
      <g
         transform="matrix(1.8913144,0,0,-1.8913144,37.251409,326.85577)"
         id="g101720"
         style="display:inline;fill:#ffffff">
        <path
           id="path101722"
           style="fill:#ffffff;fill-opacity:1;fill-rule:nonzero;stroke:none"
           d="m 0,0 c -1.318,-3.288 0.835,-5.18 2.469,-4.777 1.623,0.4 1.41,2.803 3.444,5.696 C 6.808,2.185 9.664,3.905 9.608,4.548 9.551,5.183 7.428,6.843 5.861,6.954 4.299,7.06 1.317,3.287 0,0" />
      </g>
      <g
         transform="matrix(1.8913144,0,0,-1.8913144,258.19376,286.0004)"
         id="g101724"
         style="display:inline;fill:#ffffff">
        <path
           id="path101726"
           style="fill:#ffffff;fill-opacity:1;fill-rule:nonzero;stroke:none"
           d="m 0,0 c -0.684,0.081 -1.703,-5.731 -2.498,-8.404 0.012,0 -1.172,-5.704 -0.898,-5.982 0.285,-0.279 2.048,-0.177 3.267,0.277 1.223,0.454 1.307,1.245 1.275,3.769 C 1.129,-7.813 0.701,-0.076 0,0" />
      </g>
      <g
         transform="matrix(1.8913144,0,0,-1.8913144,54.559579,286.0004)"
         id="g101728"
         style="display:inline;fill:#ffffff">
        <path
           id="path101730"
           style="fill:#ffffff;fill-opacity:1;fill-rule:nonzero;stroke:none"
           d="m 0,0 c -0.701,-0.076 -1.127,-7.813 -1.146,-10.34 -0.031,-2.524 0.053,-3.315 1.275,-3.769 1.22,-0.454 2.982,-0.556 3.267,-0.277 0.275,0.278 -0.91,5.982 -0.897,5.982 C 1.705,-5.731 0.685,0.081 0,0" />
      </g>
      <g
         transform="matrix(1.8913144,0,0,-1.8913144,48.711989,330.42235)"
         id="g101732"
         style="display:inline;fill:#ffffff">
        <path
           id="path101734"
           style="fill:#ffffff;fill-opacity:1;fill-rule:nonzero;stroke:none"
           d="m 0,0 c -1.357,-3.921 -2.168,-7.952 -0.907,-8.302 1.259,-0.348 3.058,1.559 4.961,2.264 1.467,0.54 3.012,0.309 3.582,0.892 0.566,0.584 0.34,3.434 1.111,4.919 0.771,1.486 2.316,3.265 2.045,3.725 C 10.518,3.941 4.921,5.221 4.925,5.237 3.156,4.933 1.357,3.922 0,0" />
      </g>
      <path
         d="m 153.72449,310.46396 c -1.69082,-14.70885 -7.90001,-21.15622 -14.75981,-21.12206 -6.87112,0.0339 -12.21412,4.75657 -15.28181,12.74741 -3.06205,7.99084 -2.94857,24.78559 0.43876,28.67039 3.35521,3.99258 22.79603,3.04686 27.70209,1.33717 4.94578,-1.60387 3.5519,-6.9297 1.90077,-21.63291"
         style="display:inline;fill:#ffffff;fill-opacity:1;fill-rule:nonzero;stroke:none;stroke-width:0.28222224"
         id="path101738" />
      <g
         transform="matrix(1.8913144,0,0,-1.8913144,48.640929,306.46883)"
         id="g101740"
         style="display:inline;fill:#ffffff">
        <path
           id="path101742"
           style="fill:#ffffff;fill-opacity:1;fill-rule:nonzero;stroke:none"
           d="m 0,0 c 0.86,0.156 1.24,4.377 1.147,6.709 -0.1,2.337 -1.524,4.737 -1.522,4.737 C -1.463,11.128 -2.575,7.173 -2.346,4.471 -2.118,1.766 -0.86,-0.155 0,0" />
      </g>
      <path
         id="path101746"
         d="m -12.377741,230.19686 c 0,0 -11.88302,50.4825 -5.94427,66.32223 5.94058,15.83971 20.7901801,31.68592 23.7595501,45.54361 2.96938,13.85768 40.5879899,102.94987 85.1341199,114.82916 22.587971,6.02208 45.318931,12.11779 65.801891,12.11779 20.48295,0 43.22651,-6.09571 65.81066,-12.11779 23.03097,-6.14114 44.21203,-32.91586 59.70772,-59.26666 l 1.28752,-32.78209 1.905,-58.39346 1.33181,-54.76862 0.26442,-18.08001 c -1.6002,0.0169 -2.72119,0.15552 -3.12192,0.5557 -2.96926,2.96955 2.97121,16.82467 0,29.69514 -2.14858,9.33366 -5.88831,18.65855 -13.81141,25.72626 0.79277,3.02824 1.09757,6.39035 0.90847,8.61653 -0.42952,5.11386 -2.92777,10.40693 -6.35873,10.40693 -0.1891,0 -0.37592,-0.0225 -0.55571,-0.0618 -0.47667,-0.085 -0.8887,-0.31581 -1.26124,-0.65249 -0.0339,1.72323 -0.2145,3.19418 -0.84666,4.37443 0.92879,-0.36885 1.84261,-0.61354 2.63707,-0.67027 0.0962,-0.006 0.18457,-0.008 0.27347,-0.008 4.58272,0 10.54495,8.57051 12.92043,14.49041 1.846,4.60726 0.52604,7.65188 -0.42333,9.05734 -1.26352,1.86296 -3.26872,2.98112 -5.36224,2.98112 -0.46172,0 -0.90876,-0.0598 -1.34929,-0.16764 -0.90792,-0.22492 -1.6115,-0.64458 -2.19599,-1.18195 0.94208,3.93023 1.34451,7.64201 0.29099,9.64861 -0.58648,1.12552 -1.46727,1.57933 -2.09889,1.75514 -0.37676,0.10414 -0.7702,0.14986 -1.17321,0.14986 -1.93294,0 -3.79278,-1.17713 -5.75027,-2.4254 -1.24828,-0.79079 -2.54199,-1.61177 -3.76598,-2.06362 -1.02899,-0.38016 -2.13897,-0.52041 -3.21902,-0.65278 -1.06651,-0.13602 -2.09156,-0.27602 -2.98987,-0.65249 0.0381,2.93341 -0.42021,5.65602 -1.38457,7.49639 -0.90228,1.73029 -2.07407,2.37744 -2.89279,2.61929 -0.35193,0.10613 -0.75523,0.16764 -1.19042,0.16764 -3.0226,0 -10.63752,-3.93192 -13.97,-6.8086 0.26644,5.48103 0.27348,19.19422 -6.35013,19.95847 -0.1778,0.0225 -0.36962,0.0353 -0.56443,0.0353 -6.02573,0 -15.06885,-11.52343 -16.48357,-14.53446 -0.12483,-0.25541 -0.24622,-0.55682 -0.36158,-0.88194 -0.63169,5.32977 -1.71821,10.26216 -3.02509,12.40904 -2.14664,3.60651 -4.93363,4.36541 -6.89679,4.36568 h -0.009 c -2.58924,0 -5.3613,-1.30019 -8.255,-3.86305 -2.82564,-2.48894 -5.17115,-9.47902 -6.30589,-15.99862 -1.2029,6.05393 -3.60379,12.5521 -5.5386,14.87848 l -0.26461,0.3175 c -2.05772,2.53238 -3.67986,4.53334 -6.63224,4.53334 -1.42226,0 -2.995,-0.47159 -5.24756,-1.56099 -5.42051,-2.60998 -7.03392,-16.12336 -7.3025,-18.80333 -0.0529,-0.53509 -0.0963,-1.03237 -0.13226,-1.51667 -0.0813,0 -0.16566,0 -0.24696,0 -0.0813,0 -0.16061,0 -0.23813,0 -0.0379,0.49332 -0.0774,1.00047 -0.13232,1.54318 -0.26855,2.68 -1.88573,16.17925 -7.3025,18.78558 -2.25253,1.08741 -3.82148,1.55223 -5.24756,1.55223 -2.94854,0 -4.57255,-1.99898 -6.6322,-4.53334 l -0.2734,-0.34375 c -1.92913,-2.31309 -4.33009,-8.80703 -5.5386,-14.86098 -1.12913,6.52496 -3.47652,13.5255 -6.30592,16.01612 -2.88427,2.56088 -5.66391,3.85403 -8.255,3.8543 -1.96321,0 -4.75141,-0.76481 -6.90565,-4.39222 -1.30686,-2.13897 -2.38644,-7.06149 -3.01622,-12.39126 -0.12108,0.34065 -0.24874,0.65418 -0.37926,0.91723 -1.39766,2.98252 -10.442041,14.50793 -16.465911,14.50793 -0.19671,0 -0.38788,-0.0114 -0.57325,-0.0353 -6.59878,-0.7603 -6.60789,-14.41167 -6.34119,-19.9232 -3.31546,2.83718 -10.94198,6.77333 -13.97,6.77333 -0.43499,0 -0.84322,-0.0556 -1.20825,-0.16764 -0.80383,-0.23593 -1.9711,-0.89069 -2.87514,-2.61929 -0.9608,-1.84206 -1.42565,-4.55901 -1.39347,-7.49639 -0.89273,0.37846 -1.91429,0.50969 -2.98098,0.64376 -1.07806,0.13433 -2.18959,0.28135 -3.22791,0.66151 -1.2218,0.45185 -2.50882,1.27481 -3.75709,2.06362 -1.95941,1.25023 -3.81544,2.4254 -5.75027,2.4254 -0.40285,0 -0.7985,-0.0457 -1.173,-0.14986 -0.63359,-0.17581 -1.50704,-0.62962 -2.099,-1.75514 -1.05159,-2.0066 -0.64706,-5.71865 0.29102,-9.64861 -0.58061,0.53737 -1.28634,0.95901 -2.19602,1.18195 -0.4388,0.1098 -0.88979,0.16764 -1.34939,0.16764 -2.09937,0 -4.10955,-1.11816 -5.37106,-2.98112 -0.94942,-1.40348 -2.26421,-4.44865 -0.4145,-9.05734 2.37171,-5.92019 8.33597,-14.49041 12.9205,-14.49041 0.0889,0 0.17947,0.003 0.26456,0.008 0.80007,0.0567 1.71343,0.30845 2.64583,0.67903 -0.6317,-1.17999 -0.80885,-2.66023 -0.84667,-4.38319 -0.3688,0.33668 -0.78646,0.56753 -1.26116,0.65249 -0.18347,0.0381 -0.37341,0.0618 -0.56445,0.0618 -3.42894,0 -5.91876,-5.29307 -6.35,-10.40693 -0.18722,-2.22618 0.11591,-5.58829 0.90839,-8.61653 -7.91896,-7.06771 -11.65891,-16.3926 -13.81122,-25.72626 -2.96937,-12.87047 2.96934,-26.72559 0,-29.69514 -1.42985,-1.42777 -11.86745,0.37338 -21.5282799,-0.24693 -10.41547,-0.67141 -20.0466101,-3.71293 -20.0466101,-3.71293 z"
         style="display:inline;fill:#ffffff;fill-opacity:1;fill-rule:nonzero;stroke:none;stroke-width:0.28222224" />
      <g
         transform="matrix(1.8913144,0,0,-1.8913144,134.01686,336.35669)"
         id="g101748"
         style="display:inline;fill:#ffffff">
        <path
           id="path101750"
           style="fill:#ffffff;fill-opacity:1;fill-rule:nonzero;stroke:none"
           d="m 0,0 c -2.326,-0.826 0.446,-10.926 2.203,-13.032 1.713,-2.105 2.193,-2.845 5.075,-1.454 2.91,1.4 4.183,13.325 2.824,14.356 C 10.092,-0.158 2.299,0.795 0,0" />
      </g>
      <g
         transform="matrix(1.8913144,0,0,-1.8913144,120.28287,305.13877)"
         id="g101752"
         style="display:inline;fill:#ffffff">
        <path
           id="path101754"
           style="fill:#ffffff;fill-opacity:1;fill-rule:nonzero;stroke:none"
           d="m 0,0 c -0.052,-0.01 -4.938,8.694 -7.715,7.908 -2.8,-0.805 -6.199,-11.381 -5.674,-13.725 0.542,-2.344 2.408,-4.728 4.492,-5.255 2.078,-0.548 7.636,-0.437 7.634,-0.423 -0.003,0 -0.509,2.743 -0.163,5.858 C -1.161,-3.256 0.004,-0.001 0,0" />
      </g>
      <g
         transform="matrix(1.8913144,0,0,-1.8913144,109.77442,332.50568)"
         id="g101756"
         style="display:inline;fill:#ffffff">
        <path
           id="path101758"
           style="fill:#ffffff;fill-opacity:1;fill-rule:nonzero;stroke:none"
           d="m 0,0 c -1.791,-0.876 -0.679,-13.044 0.838,-15.531 1.477,-2.486 3.809,-2.238 6.319,-0.013 2.528,2.227 4.008,12.245 3.052,13.625 C 9.239,-0.564 1.771,0.847 0,0" />
      </g>
      <path
         d="m 248.65577,286.37544 c -2.45676,-0.97393 -9.52643,11.605 -9.58511,11.59201 -0.003,0 1.57337,5.74379 1.73228,9.43949 0.15888,3.70133 -0.97198,9.25406 -0.97198,9.25406 -0.003,0 3.20942,0.53142 6.16569,-0.58618 2.95037,-1.11985 2.9182,-6.50436 4.469,-11.34788 1.56604,-4.84743 0.71319,-17.36031 -1.80988,-18.3515"
         style="display:inline;fill:#ffffff;fill-opacity:1;fill-rule:nonzero;stroke:none;stroke-width:0.28222224"
         id="path101762" />
      <path
         d="m 173.78644,289.34161 c -6.85604,-0.0342 -13.06899,6.4135 -14.75793,21.12208 -1.65113,14.70322 -3.04879,20.02901 1.90267,21.63289 4.90606,1.70971 24.34688,2.65544 27.70206,-1.33718 3.38736,-3.88477 3.50084,-20.67954 0.43881,-28.67038 -3.06586,-7.99084 -8.41446,-12.71325 -15.28561,-12.74741"
         style="display:inline;fill:#ffffff;fill-opacity:1;fill-rule:nonzero;stroke:none;stroke-width:0.28222224"
         id="path101766" />
      <g
         transform="matrix(1.8913144,0,0,-1.8913144,189.44125,361.90433)"
         id="g101768"
         style="display:inline;fill:#ffffff">
        <path
           id="path101770"
           style="fill:#ffffff;fill-opacity:1;fill-rule:nonzero;stroke:none"
           d="M 0,0 C 2.512,-2.224 4.842,-2.473 6.32,0.013 7.838,2.5 8.949,14.668 7.158,15.544 5.387,16.391 -2.08,14.979 -3.051,13.625 -4.008,12.245 -2.525,2.227 0,0" />
      </g>
      <g
         transform="matrix(1.8913144,0,0,-1.8913144,159.63488,336.60222)"
         id="g101772"
         style="display:inline;fill:#ffffff">
        <path
           id="path101774"
           style="fill:#ffffff;fill-opacity:1;fill-rule:nonzero;stroke:none"
           d="m 0,0 c -1.361,-1.03 -0.088,-12.955 2.822,-14.356 2.881,-1.391 3.364,-0.651 5.076,1.454 C 9.652,-10.796 12.426,-0.697 10.1,0.13 7.801,0.925 0.008,-0.028 0,0" />
      </g>
      <path
         d="m 207.06544,290.18206 c -5.24841,-1.48844 -14.49507,14.97359 -14.59526,14.95666 -0.008,0 2.19389,6.15809 2.70076,10.66122 0.65439,5.89336 -0.30636,11.07919 -0.31015,11.07919 -0.004,0.0254 10.51002,0.23651 14.44395,-0.79981 3.93393,-0.99682 7.46501,-5.50558 8.49201,-9.93902 0.98915,-4.43314 -5.43374,-24.43395 -10.73131,-25.95824"
         style="display:inline;fill:#ffffff;fill-opacity:1;fill-rule:nonzero;stroke:none;stroke-width:0.28222224"
         id="path101778" />
      <path
         id="path101782"
         d="m 156.37355,-343.50816 c -117.401491,0 -196.227121,73.25135 -232.64815,107.46515 -36.55912,34.3439 -50.96169,108.57033 -48.74508,158.42346 2.21473,49.85512 16.62173,79.7630695 18.83833,90.8403 2.21663,11.07551 2.21268,46.53052 4.42739,55.39512 1.781584,7.12783 11.446059,12.1003 15.16061,13.77585 0.141846,-0.0906 0.28211,-0.18005 0.414499,-0.28223 0.370729,-0.29689 0.748737,-0.59322 1.12889,-0.89971 l 0.05295,-0.044 0.132276,-0.1411 0.264583,-0.29972 c 0.2194,-0.21564 0.276466,-0.38637 0.361585,-0.54695 0.187282,-0.27067 0.370274,-0.76144 0.555638,-1.19044 0.145627,-0.47524 0.315524,-0.94768 0.423333,-1.46415 0.232635,-1.01939 0.411282,-2.08788 0.511527,-3.21903 0.225073,-2.24679 0.316908,-4.6355 0.326335,-7.09959 0.02257,-4.93636 -0.236842,-10.20403 -0.282223,-15.68111 -0.05489,-5.4754 -0.0716,-11.17968 0.493889,-17.01263 0.595715,-5.81012 1.594303,-11.83698 4.242139,-17.55085 2.596782,-5.27841 5.296747,-10.4173805 7.76111,-15.5222305 1.218015,-2.55127 2.384976,-5.07039 3.298473,-7.56692 0.896507,-2.50219 1.441337,-4.9705195 1.490501,-7.4348695 -0.0037,-0.61836 -0.01834,-1.23389 -0.06175,-1.85195 l -0.08819,-0.92626 -0.03528,-0.3793 -0.08819,-0.49387 c -0.139954,-0.69909 -0.243671,-1.03463 -0.449805,-1.69334 -0.168318,-0.58817 -0.37592,-1.18054 -0.582057,-1.77265 -0.866196,-2.37715 -1.901725,-4.71086 -2.919249,-6.96722 -2.067221,-4.50877 -4.110341,-8.77541 -5.961946,-12.72651 -3.739134,-7.89237 -6.676982,-14.59683 -8.263805,-19.4821 -0.813279,-2.43615 -1.248495,-4.4323 -1.384665,-5.80334 -0.05673,-0.68665 -0.08498,-1.20904 -0.02653,-1.56096 0.03968,-0.35166 0.06172,-0.53793 0.06172,-0.53793 v 0.53793 c -0.01524,0.34798 0.07549,0.86754 0.211667,1.52569 0.279937,1.32588 0.984475,3.18855 2.001999,5.50333 2.042641,4.63013 5.554302,10.97759 9.771946,18.60918 2.112602,3.81847 4.42877,7.94144 6.711611,12.43526 1.144241,2.25044 2.301718,4.56353 3.351388,7.07334 0.25722,0.63556 0.5189,1.27199 0.74967,1.94903 0.22132,0.59775 0.48872,1.54292 0.61733,2.15194 0.30641,1.50172 0.42207,2.89673 0.46745,4.40973 0.0321,2.99775 -0.57133,6.0271295 -1.4905,8.8281895 -0.92296,2.81038 -2.09305,5.47878002 -3.333727,8.09638 -2.466255,5.2296 -5.130405,10.4230505 -7.628834,15.6015305 -2.316874,4.85114 -3.372329,10.4603 -3.977555,15.99861 -0.559816,5.56996 -0.799987,11.14357 -0.864333,16.57155 -0.06807,5.42798 -0.09429,10.71004 -0.343945,15.76916 -0.138063,2.5287 -0.313436,5.00237 -0.714389,7.41707 -0.187256,1.2034 -0.459599,2.39945 -0.811389,3.57208 -0.387689,1.19325 -0.757823,2.27643 -1.605111,3.46599 -0.209944,0.29888 -0.425082,0.60283 -0.608555,0.75862 l -0.291057,0.28223 -0.141111,0.1411 -0.03528,0.035 c -0.09836,0.0928 -0.113003,0.10668 -0.114638,0.1061 0,0 -0.0039,-0.003 -0.01749,0.008 l -0.08819,0.0706 c -0.476618,0.33274 -0.945867,0.66069 -1.41111,0.98777 -0.472837,0.31046 -0.982361,0.53763 -1.455195,0.80238 -0.472863,0.27093 -0.960319,0.46931 -1.44639,0.65278 -0.0681,0.0302 -0.13476,0.0511 -0.202861,0.0793 -4.113615,3.84331 -12.012367,10.82831 -18.265089,13.95251 -8.86457,4.42947 -14.40422,31.01679 -6.64983,36.55653 7.75632,5.53776 8.86206,46.53505 36.556585,70.90833 27.696414,24.37157 70.9051741,16.6133 84.1992541,15.50443 13.2940499,-1.10771 25.4852299,3.32092 31.0267799,11.07723 5.53782,7.7583 -8.87149,38.77733 3.31611,53.18138 0.34234,0.40301 0.73866,0.82804 1.16417,1.26127 0.88138,-2.65912 1.95709,-5.17935 3.90703,-5.32696 1.94995,-0.14759 3.80396,3.71123 4.28625,5.01819 0.55603,-2.84649 1.32314,-3.76454 2.70755,-3.91583 l 0.25578,-0.0169 c 2.332,0 3.07281,2.33315 4.93005,10.19501 0.36884,-4.54237 1.5108,-8.76329 3.8012,-9.6661 0.33663,-0.13407 0.69455,-0.20265 1.06714,-0.20265 2.02559,0 4.54603,1.91686 10.063,10.95362 0.99483,-6.38331 3.01346,-12.47537 6.6675,-13.32598 0.261,-0.0612 0.53526,-0.0883 0.81139,-0.0883 2.58733,0 6.09001,2.16183 14.13755,17.82402 0.15506,0.30623 0.27142,0.51705 0.35278,0.6703 2.27717,-5.84229 5.396271,-11.14187 8.687161,-12.09154 0.41987,-0.11909 0.84886,-0.1761 1.28765,-0.1761 2.47004,0 6.6871,1.55786 14.85193,14.71959 0.14563,-0.47104 0.29597,-0.93078 0.45861,-1.35835 3.48003,-9.05933 9.60802,-14.06228 17.25083,-14.10237 8.93268,0 15.21166,8.59367 16.8628,22.99237 0.1929,1.71167 0.3816,3.26898 0.55562,4.72723 0.17211,-1.45825 0.36269,-3.02119 0.55563,-4.72723 1.65298,-14.40434 7.93768,-22.99179 16.80985,-22.99237 7.70519,0.0398 13.82749,5.04473 17.30375,14.10237 0.16264,0.42728 0.31991,0.88731 0.46744,1.35835 8.1629,-13.16173 12.37684,-14.71959 14.84312,-14.71959 0.44069,0 0.87723,0.0593 1.28762,0.1761 3.2947,0.94941 6.41692,6.25123 8.69598,12.09154 0.0813,-0.15129 0.18886,-0.36944 0.34394,-0.6703 8.04568,-15.66756 11.54842,-17.82402 14.13753,-17.82402 0.27236,0 0.54864,0.0347 0.8114,0.0971 3.64828,0.84722 5.67097,6.93899 6.6675,13.32624 5.51518,-9.04041 8.0391,-10.96264 10.06292,-10.96264 0.37423,0 0.73576,0.0666 1.07612,0.20265 2.28655,0.89857 3.43238,5.12148 3.80095,9.6661 1.85563,-7.86355 2.59786,-10.19501 4.93014,-10.19501 l 0.27347,0.0169 c 1.37134,0.1493 2.12712,1.0764 2.68113,3.92459 0.47299,-1.27453 2.32889,-5.12149 4.28638,-5.02695 1.95355,0.0946 3.03221,2.66784 3.91554,5.32696 0.42561,-0.43124 0.81111,-0.85826 1.15544,-1.26127 12.18184,-14.40405 -2.21094,-45.42253 3.32512,-53.18138 2.83946,-3.97425 7.42585,-7.07475 13.00848,-9.00459 l 0.35277,-24.2093 0.18542,-47.61624 0.84667,-24.80903 c -24.41136,0.031 -52.65645,-3.33925 -63.81758,-12.77932 -18.39873,-15.55411 -37.67368,-34.77175 -33.2934,-52.15834 4.37836,-17.38686 14.89713,-55.8243905 53.44584,-65.8898505 5.42094,-1.41563 10.26811,-2.01422 14.65778,-2.00208 14.84405,0.0409 24.43366,7.09393 33.09959,13.38776 l 7.55819,-220.9447195 3.77473,-80.35375 h -12.15334 l -2.12543,-4.65666 -2.03734,-4.42751 -2.00181,-4.25986 -1.86098,-3.99514 -1.81694,-3.81 -0.11459,-0.23819 c -34.99415,-17.00072 -76.79567,-29.42132 -125.13904,-29.42132 z M 53.556429,-4.7884305 c 4.38949,-0.0114 9.237,0.58647 14.65795,2.0021 38.548731,10.06544 49.067431,48.5029905 53.445831,65.8898505 4.38222,17.38659 -14.89469,36.60423 -33.293411,52.15834 -18.39869,15.55975 -83.2302999,14.6431 -100.75334,9.15445 -17.52115,-5.49037 -29.78325,-44.84314 -29.78325,-63.14723 0,-18.30043 20.15033,-43.00363 41.17797011,-43.00363 18.07063989,0 27.72356989,-22.9796405 54.54824989,-23.0538805 z M 146.14298,115.29713 c 5.12093,0.008 9.56548,9.83292 10.23057,11.36819 0.68463,-1.58496 5.3985,-11.99668 10.72443,-11.33289 5.77038,0.72247 12.98586,10.09676 11.54465,18.02693 -1.44495,7.93044 2.15423,28.82845 5.75908,46.8489 3.60489,18.02609 12.98223,19.47389 12.98223,31.00917 0,11.53498 -16.58676,21.62667 -26.67881,16.58053 -9.2769,-4.63915 -13.68285,-20.85509 -14.33158,-23.44221 -0.65061,2.58712 -5.05283,18.80306 -14.33161,23.44221 -10.09205,5.04614 -26.67,-5.04555 -26.67,-16.58053 0,-11.53528 9.37041,-12.98308 12.9734,-31.00917 3.60486,-18.02045 7.21106,-38.91846 5.76794,-46.8489 -1.44119,-7.93017 5.76731,-17.30446 11.53583,-18.02693 0.1665,-0.0199 0.32869,-0.0356 0.49387,-0.0353 z"
         style="display:inline;fill:#ffffff;fill-opacity:1;fill-rule:nonzero;stroke:none;stroke-width:0.28222224" />
      <g
         transform="matrix(1.8913144,0,0,-1.8913144,264.11117,306.46883)"
         id="g101784"
         style="display:inline;fill:#ffffff">
        <path
           id="path101786"
           style="fill:#ffffff;fill-opacity:1;fill-rule:nonzero;stroke:none"
           d="M 0,0 C 0.863,-0.155 2.119,1.766 2.348,4.471 2.576,7.173 1.465,11.128 0.375,11.446 0.377,11.445 -1.045,9.046 -1.145,6.709 -1.24,4.377 -0.857,0.156 0,0" />
      </g>
      <g
         transform="matrix(1.8913144,0,0,-1.8913144,257.33281,318.25258)"
         id="g101788"
         style="display:inline;fill:#ffffff">
        <path
           id="path101790"
           style="fill:#ffffff;fill-opacity:1;fill-rule:nonzero;stroke:none"
           d="m 0,0 c -0.057,-0.644 2.797,-2.364 3.695,-3.63 2.034,-2.892 1.823,-5.295 3.444,-5.696 1.632,-0.403 3.785,1.489 2.466,4.777 C 8.289,-1.262 5.307,2.511 3.746,2.405 2.18,2.294 0.057,0.634 0,0" />
      </g>
      <g
         transform="matrix(1.8913144,0,0,-1.8913144,247.49957,330.85071)"
         id="g101792"
         style="display:inline;fill:#ffffff">
        <path
           id="path101794"
           style="fill:#ffffff;fill-opacity:1;fill-rule:nonzero;stroke:none"
           d="m 0,0 c 0.77,-1.485 0.545,-4.336 1.111,-4.919 0.569,-0.583 2.114,-0.352 3.582,-0.893 1.901,-0.705 3.703,-2.612 4.961,-2.263 1.26,0.349 0.45,4.381 -0.906,8.302 C 7.391,4.148 5.592,5.16 3.822,5.464 3.826,5.448 -1.773,4.168 -2.045,3.725 -2.316,3.265 -0.77,1.485 0,0" />
      </g>
      <g
         transform="matrix(1.8913144,0,0,-1.8913144,230.03839,328.1689)"
         id="g101796"
         style="display:inline;fill:#ffffff">
        <path
           id="path101798"
           style="fill:#ffffff;fill-opacity:1;fill-rule:nonzero;stroke:none"
           d="M 0,0 C -0.449,-0.892 -0.066,-2.083 0.414,-4.351 0.895,-6.619 0.02,-7.514 0.215,-8.109 c 0.174,-0.613 5.949,-4.216 7.461,-3.757 1.494,0.44 1.984,4.686 0.83,8.142 C 7.365,-0.265 6.564,1.895 5.168,2.096 3.775,2.288 0.457,0.883 0,0" />
      </g>
      <g
         transform="matrix(1.8913144,0,0,-1.8913144,207.3718,333.48649)"
         id="g101800"
         style="display:inline;fill:#ffffff">
        <path
           id="path101802"
           style="fill:#ffffff;fill-opacity:1;fill-rule:nonzero;stroke:none"
           d="m 0,0 c -0.686,-1.194 -0.27,-7.245 0.598,-9.024 0.839,-1.788 5.58,-7.309 7.873,-7.035 2.281,0.264 2.707,6.434 2.295,10.524 -0.391,4.093 0.672,8.164 -1.584,8.914 C 6.947,4.107 0.709,1.179 0,0" />
      </g>
      <path
         d="m 231.15374,283.89868 c -4.19693,-0.98526 -12.99522,17.6307 -13.11061,17.61376 -0.004,0 1.45254,4.96853 1.89513,8.61878 0.44824,3.65027 -0.20994,9.2806 -0.21373,9.2806 -0.0265,0.014 7.9909,5.21264 12.16496,4.20256 4.13626,-0.99483 4.18931,-6.7973 4.98915,-14.55928 0.80205,-7.76758 -1.41084,-24.15595 -5.7249,-25.15642"
         style="display:inline;fill:#ffffff;fill-opacity:1;fill-rule:nonzero;stroke:none;stroke-width:0.28222224"
         id="path101806" />
      <path
         id="path101698-4"
         d="m -118.52857,397.44882 c -3.94104,-0.003 -7.99959,0.49049 -12.17084,1.57875 -48.54405,12.6633 -10.55686,59.09027 -10.55686,59.09 0,0 -37.99321,18.99243 -16.88925,50.65014 21.10269,31.65798 37.98841,16.88619 61.206946,12.66471 16.515025,-3.00482 105.3180031,26.20068 181.045563,53.19014 -73.65667,26.36125 -153.612602,54.45111 -165.373395,54.45111 -14.770354,0 -25.326254,-33.77382 -61.206944,-2.11666 -32.03448,28.26993 -0.13324,48.12905 4.05694,62.57405 l 21.19312,0.025 64.108549,-0.079 c 53.42939011,-23.9279 152.73357,-65.55262 204.619951,-85.39002 1.958,-0.74846 4.22633,-1.6115 6.31474,-2.40766 2.17262,0.8241 4.29611,1.63267 6.32351,2.40766 26.54919,10.15039 65.52298,26.00986 104.41347,42.28055 l 1.32279,-12.065 2.58432,-45.10278 c -13.7925,-4.87934 -27.84886,-9.895 -41.67209,-14.84292 14.21241,-5.21237 28.86821,-10.51419 43.4004,-15.66333 l 3.32515,-63.12098 c -38.2284,17.85254 -82.76392,37.85899 -119.67996,52.26417 -83.559761,-32.60344 -206.225061,-93.93597 -206.225061,-93.93597 0,0 -28.222557,-56.42496 -70.141049,-56.45319 z"
         style="display:inline;fill:#ffffff;fill-opacity:1;fill-rule:nonzero;stroke:none;stroke-width:0.28222224" />
    </g>
  </g>
</svg>
